<svg width="150" height="150" viewBox="0 0 150 150" fill="none" xmlns="http://www.w3.org/2000/svg">
<path fill-rule="evenodd" clip-rule="evenodd" d="M62.0413 66.6909L97.9466 45.9571L110.906 53.4391V94.9041L74.9995 115.634L39.0928 94.9041V53.4391L74.9995 32.7088L92.9528 43.0741L87.9578 40.1921L52.051 60.9221V78.1994L62.0413 83.9635V66.6909Z" fill="#A4D4FF"/>
<path fill-rule="evenodd" clip-rule="evenodd" d="M39.0928 53.4391L74.9995 74.1691V115.634L39.0928 94.9041V53.4391ZM52.051 78.1994L62.0413 83.9635V66.6909L52.051 60.9221V78.1994Z" fill="#A4D4FF"/>
<path fill-rule="evenodd" clip-rule="evenodd" d="M52.0525 60.9212L39.0928 53.4391L74.9995 32.7088L92.9528 43.0741L87.9578 40.1921L52.0525 60.9212ZM97.9466 45.9571L110.906 53.4391L74.9995 74.1691L62.0439 66.6894L97.9466 45.9571Z" fill="#A4D4FF"/>
<path fill-rule="evenodd" clip-rule="evenodd" d="M14.0355 48.9871C14.0355 50.1235 13.1132 51.0459 11.9767 51.0459C10.8405 51.0459 9.91786 50.1235 9.91786 48.9871V11.1485C9.91786 10.0115 10.8396 9.08971 11.9767 9.08971H50.6455C51.7817 9.08971 52.7043 10.0121 52.7043 11.1485C52.7043 12.2847 51.7817 13.2074 50.6455 13.2074H14.0355V48.9871ZM50.6455 135.136C51.7817 135.136 52.7043 136.059 52.7043 137.195C52.7043 138.331 51.7817 139.254 50.6455 139.254H11.9767C10.8396 139.254 9.91786 138.332 9.91786 137.195V101.013C9.91786 99.8765 10.8405 98.9541 11.9767 98.9541C13.1132 98.9541 14.0355 99.8765 14.0355 101.013V135.136H50.6455ZM135.964 100.184C135.964 99.0482 136.887 98.1256 138.023 98.1256C139.159 98.1256 140.082 99.0482 140.082 100.184V137.195C140.082 138.332 139.16 139.254 138.023 139.254H99.3543C98.2182 139.254 97.2955 138.331 97.2955 137.195C97.2955 136.059 98.2182 135.136 99.3543 135.136H135.964V100.184ZM99.3543 13.2074C98.2182 13.2074 97.2955 12.2847 97.2955 11.1485C97.2955 10.0121 98.2182 9.08971 99.3543 9.08971H138.023C139.16 9.08971 140.082 10.0115 140.082 11.1485V48.1585C140.082 49.295 139.159 50.2174 138.023 50.2174C136.887 50.2174 135.964 49.295 135.964 48.1585V13.2074H99.3543ZM76.0293 30.9259L111.936 51.6559C112.573 52.0238 112.966 52.7035 112.966 53.4391V94.9041C112.966 95.6397 112.573 96.3194 111.936 96.687L76.0293 117.417C75.3923 117.785 74.6076 117.785 73.9705 117.417L38.0637 96.687C37.427 96.3194 37.0343 95.6397 37.0343 94.9041V53.4391C37.0343 52.7035 37.427 52.0238 38.0637 51.6559L73.9705 30.9259C74.6076 30.5582 75.3923 30.5582 76.0293 30.9259ZM83.842 40.1909L74.9999 35.0862L43.2111 53.4391L52.0529 58.5438L83.842 40.1909ZM93.8293 45.9571L87.9596 42.5682L56.1708 60.9212L62.0443 64.3121L93.8293 45.9571ZM106.789 53.4391L97.947 48.3344L66.1617 66.6891L74.9999 71.7918L106.789 53.4391ZM77.0587 112.068L108.848 93.7153V57.005L77.0587 75.3576V112.068ZM41.152 57.005V93.7153L72.9411 112.068V75.3576L64.1005 70.2538V83.9635C64.1005 84.6991 63.7085 85.3785 63.0714 85.7465C62.4346 86.1144 61.6499 86.1144 61.0129 85.7468L51.0226 79.9829C50.3852 79.615 49.9926 78.9353 49.9926 78.1994V62.1088L41.152 57.005ZM59.9829 67.8768L54.1102 64.4862V77.0106L59.9829 80.3988V67.8768ZM72.9411 20.2097V4.41177C72.9411 3.27559 73.8637 2.35294 74.9999 2.35294C76.1361 2.35294 77.0587 3.27559 77.0587 4.41177V20.2138L81.1732 16.0994C81.9767 15.2959 83.2814 15.2959 84.0849 16.0994C84.8885 16.9026 84.8885 18.2074 84.0849 19.0109L76.4596 26.6362C75.6558 27.44 74.3529 27.4403 73.5487 26.6371L65.9158 19.0118C65.112 18.2085 65.1111 16.9038 65.9143 16.1C66.7173 15.2962 68.022 15.2956 68.8258 16.0985L72.9411 20.2097ZM23.5308 72.1126L19.4161 67.9982C18.6129 67.1947 18.6129 65.89 19.4161 65.0868C20.2196 64.2832 21.5243 64.2832 22.3279 65.0868L29.9532 72.7118C30.757 73.5156 30.7573 74.8185 29.9537 75.6226L22.3285 83.2559C21.5255 84.0597 20.2208 84.0603 19.417 83.2574C18.6132 82.4541 18.6126 81.1494 19.4155 80.3456L23.5267 76.2303H7.72875C6.59227 76.2303 5.66992 75.3079 5.66992 74.1715C5.66992 73.0353 6.59227 72.1126 7.72875 72.1126H23.5308ZM72.9411 140.617V124.82C72.9411 123.683 73.8637 122.761 74.9999 122.761C76.1361 122.761 77.0587 123.683 77.0587 124.82V140.622L81.1732 136.507C81.9767 135.704 83.2814 135.704 84.0849 136.507C84.8885 137.311 84.8885 138.615 84.0849 139.419L76.4596 147.044C75.6558 147.848 74.3529 147.848 73.5487 147.045L65.9158 139.419C65.112 138.616 65.1111 137.312 65.9143 136.508C66.7173 135.704 68.022 135.703 68.8258 136.506L72.9411 140.617ZM137.305 72.1126L133.19 67.9982C132.387 67.1947 132.387 65.89 133.19 65.0868C133.993 64.2832 135.298 64.2832 136.102 65.0868L143.727 72.7118C144.531 73.5156 144.531 74.8185 143.728 75.6226L136.102 83.2559C135.299 84.0597 133.995 84.0603 133.191 83.2574C132.387 82.4541 132.386 81.1494 133.189 80.3456L137.301 76.2303H121.503C120.366 76.2303 119.444 75.3079 119.444 74.1715C119.444 73.0353 120.366 72.1126 121.503 72.1126H137.305Z" fill="#1F4571"/>
</svg>
